<?xml version="1.0" standalone="no"?>
<!DOCTYPE svg PUBLIC "-//W3C//DTD SVG 20010904//EN"
 "http://www.w3.org/TR/2001/REC-SVG-20010904/DTD/svg10.dtd">
<svg version="1.0" xmlns="http://www.w3.org/2000/svg"
 width="2261.000000pt" height="1134.000000pt" viewBox="0 0 2261.000000 1134.000000"
 preserveAspectRatio="xMidYMid meet">

<g transform="translate(0.000000,1134.000000) scale(0.100000,-0.100000)"
fill="#000000" stroke="none">
<path d="M2287 11263 c-4 -38 -54 -1110 -112 -2383 -59 -1273 -109 -2326 -112
-2340 -4 -15 -27 97 -58 275 -29 165 -53 291 -54 280 -10 -264 -84 -1720 -88
-1745 -5 -29 -100 1506 -102 1653 l-1 47 -110 0 -110 0 0 -487 0 -488 -116
-80 c-64 -44 -120 -85 -124 -90 -5 -6 -36 -206 -69 -444 -34 -239 -63 -436
-66 -439 -3 -3 -5 17 -5 44 0 42 -48 1634 -50 1642 0 1 -54 2 -120 2 l-120 0
0 -351 0 -352 -216 -301 c-118 -166 -219 -302 -223 -304 -4 -1 -13 149 -21
335 -7 186 -15 355 -19 376 l-6 37 -190 -191 c-135 -136 -183 -190 -165 -186
62 13 241 40 244 36 2 -2 8 -170 13 -372 l8 -368 74 96 c41 52 75 94 77 93 1
-2 12 -111 24 -243 12 -132 24 -247 27 -255 3 -8 51 160 108 373 57 214 108
394 113 400 108 145 205 268 207 265 1 -2 63 -378 136 -836 74 -458 135 -829
136 -825 4 11 173 1490 173 1508 0 28 15 14 60 -55 25 -38 47 -70 50 -70 3 0
34 91 70 203 35 111 67 206 70 210 4 5 10 -7 12 -25 3 -18 61 -401 129 -852
93 -616 126 -809 131 -780 4 22 42 411 85 866 42 455 80 824 84 820 3 -4 30
-236 60 -516 35 -331 56 -499 61 -480 4 16 35 306 69 644 33 338 62 616 63
618 5 5 16 -917 15 -1317 0 -405 3 -471 118 -2583 65 -1191 120 -2164 122
-2162 4 3 159 5404 161 5577 0 27 4 46 9 43 5 -3 42 -58 82 -122 40 -64 74
-113 76 -108 1 5 27 119 57 253 31 134 58 246 61 249 3 3 5 -11 5 -30 0 -57
118 -3608 126 -3765 l6 -143 64 0 c35 0 64 1 64 3 2 13 70 3838 70 3945 0 78
3 142 8 142 4 0 45 -140 91 -312 47 -171 86 -307 87 -302 2 5 30 212 64 459
34 248 62 455 64 460 7 20 16 -32 108 -612 51 -326 96 -589 99 -585 4 4 30
126 58 271 28 146 53 266 55 268 2 2 43 -69 91 -157 l87 -162 97 146 c53 80
98 146 101 146 3 0 43 -65 90 -145 l85 -145 50 100 50 100 8982 0 8983 0 0 90
0 90 -9050 0 c-7232 0 -9051 3 -9055 13 -2 6 -16 51 -30 100 l-26 87 -62 0
-62 0 -89 -80 c-48 -44 -91 -80 -95 -80 -3 0 -24 65 -46 145 l-39 145 -33 0
c-32 0 -35 -4 -87 -107 -46 -92 -55 -104 -60 -83 -3 14 -33 268 -66 565 -33
297 -63 550 -65 563 -4 18 -12 22 -40 22 -19 0 -35 -2 -35 -5 0 -11 -132 -642
-137 -655 -3 -8 -7 -10 -9 -5 -2 6 -30 251 -64 545 -33 294 -63 545 -66 558
-3 16 -11 22 -33 22 -27 0 -29 -3 -34 -52 -4 -29 -32 -508 -64 -1065 -32 -557
-60 -1009 -64 -1005 -3 4 -59 544 -125 1200 -72 722 -122 1183 -126 1165 -4
-15 -31 -368 -59 -783 -29 -415 -54 -757 -57 -760 -2 -3 -44 38 -93 90 -49 52
-89 92 -89 89 0 -3 -27 -489 -60 -1080 -33 -591 -60 -1085 -60 -1098 0 -13 -2
-22 -5 -19 -4 4 -154 6758 -155 6961 0 13 -8 17 -34 17 l-33 0 -6 -67z"/>
</g>
</svg>
