<?xml version="1.0" encoding="UTF-8" standalone="no"?>
<svg
   version="1.0"
   width="2548.000000pt"
   height="1527.000000pt"
   viewBox="0 0 2548.000000 1527.000000"
   preserveAspectRatio="xMidYMid meet"
   id="svg1"
   sodipodi:docname="Logo.svg"
   inkscape:version="1.4.2 (f4327f4, 2025-05-13)"
   xmlns:inkscape="http://www.inkscape.org/namespaces/inkscape"
   xmlns:sodipodi="http://sodipodi.sourceforge.net/DTD/sodipodi-0.dtd"
   xmlns="http://www.w3.org/2000/svg"
   xmlns:svg="http://www.w3.org/2000/svg">
  <defs
     id="defs1">
    <linearGradient
       id="swatch21"
       inkscape:swatch="solid">
      <stop
         style="stop-color:#000000;stop-opacity:1;"
         offset="0"
         id="stop21" />
    </linearGradient>
    <linearGradient
       id="swatch15"
       inkscape:swatch="solid">
      <stop
         style="stop-color:#000000;stop-opacity:1;"
         offset="0"
         id="stop15" />
    </linearGradient>
    <inkscape:path-effect
       effect="fillet_chamfer"
       id="path-effect15"
       is_visible="true"
       lpeversion="1"
       nodesatellites_param="F,0,0,1,0,0,0,1 @ F,0,0,1,0,0,0,1 @ F,0,0,1,0,0,0,1 @ F,0,0,1,0,0,0,1"
       radius="0"
       unit="px"
       method="auto"
       mode="F"
       chamfer_steps="1"
       flexible="false"
       use_knot_distance="true"
       apply_no_radius="true"
       apply_with_radius="true"
       only_selected="false"
       hide_knots="false" />
    <inkscape:path-effect
       effect="fillet_chamfer"
       id="path-effect14"
       is_visible="true"
       lpeversion="1"
       nodesatellites_param="F,0,0,1,0,0,0,1 @ F,0,0,1,0,0,0,1 @ F,0,0,1,0,0,0,1 @ F,0,0,1,0,0,0,1"
       radius="0"
       unit="px"
       method="auto"
       mode="F"
       chamfer_steps="1"
       flexible="false"
       use_knot_distance="true"
       apply_no_radius="true"
       apply_with_radius="true"
       only_selected="false"
       hide_knots="false" />
    <inkscape:path-effect
       effect="fillet_chamfer"
       id="path-effect13"
       is_visible="true"
       lpeversion="1"
       nodesatellites_param="F,0,0,1,0,0,0,1 @ F,0,0,1,0,0,0,1 @ F,0,0,1,0,0,0,1 @ F,0,0,1,0,0,0,1"
       radius="0"
       unit="px"
       method="auto"
       mode="F"
       chamfer_steps="1"
       flexible="false"
       use_knot_distance="true"
       apply_no_radius="true"
       apply_with_radius="true"
       only_selected="false"
       hide_knots="false" />
    <linearGradient
       id="swatch6"
       inkscape:swatch="solid">
      <stop
         style="stop-color:#000000;stop-opacity:1;"
         offset="0"
         id="stop6" />
    </linearGradient>
    <rect
       x="1174.7167"
       y="1572.4347"
       width="884.98835"
       height="142.23027"
       id="rect5" />
    <rect
       x="692.7141"
       y="1174.7167"
       width="1948.7546"
       height="269.34797"
       id="rect3" />
    <rect
       x="666.37516"
       y="1277.4386"
       width="2080.7762"
       height="281.82665"
       id="rect2" />
    <rect
       x="792.80207"
       y="134.32859"
       width="218.6132"
       height="123.79301"
       id="rect1" />
  </defs>
  <sodipodi:namedview
     id="namedview1"
     pagecolor="#ffffff"
     bordercolor="#000000"
     borderopacity="0.25"
     inkscape:showpageshadow="2"
     inkscape:pageopacity="0.0"
     inkscape:pagecheckerboard="0"
     inkscape:deskcolor="#d1d1d1"
     inkscape:document-units="pt"
     inkscape:zoom="0.37966601"
     inkscape:cx="1614.577"
     inkscape:cy="770.41397"
     inkscape:window-width="1920"
     inkscape:window-height="991"
     inkscape:window-x="-9"
     inkscape:window-y="-9"
     inkscape:window-maximized="1"
     inkscape:current-layer="svg1" />
  <g
     transform="matrix(0.06866811,0,0,-0.05629107,444.83032,959.08302)"
     fill="#000000"
     stroke="none"
     id="g1">
    <path
       d="m 7326,12223 c -3,-27 -36,-713 -73,-1525 -37,-812 -70,-1474 -73,-1472 -3,3 -19,85 -36,182 -21,116 -32,162 -33,132 -1,-25 -12,-263 -26,-530 -14,-267 -25,-503 -25,-524 0,-22 -2,-37 -5,-34 -5,4 -65,996 -65,1071 0,27 0,27 -70,27 h -70 v -312 l -1,-313 -78,-53 -78,-53 -38,-275 c -21,-151 -40,-272 -42,-270 -5,4 -32,822 -33,974 v 82 h -82 -81 l 7,-218 7,-218 -143,-199 -143,-199 -7,94 c -4,52 -11,161 -15,243 l -8,147 -120,-121 -120,-121 50,7 c 28,3 67,9 88,12 l 37,6 1,-159 c 1,-88 4,-193 8,-234 l 6,-75 38,53 c 21,28 42,52 47,52 4,0 13,-65 20,-145 7,-80 16,-145 20,-145 4,0 34,104 68,232 l 62,231 67,90 c 54,72 68,86 73,71 4,-11 42,-239 85,-509 43,-269 81,-493 84,-497 4,-4 24,144 45,330 61,542 69,602 75,602 4,0 17,-18 31,-40 14,-22 27,-40 30,-40 3,0 25,59 49,131 23,72 44,129 46,127 2,-2 38,-235 80,-518 43,-283 81,-518 84,-522 4,-4 28,225 55,510 26,284 51,525 54,535 4,10 23,-128 42,-307 18,-179 35,-324 37,-323 1,2 20,182 42,401 23,220 43,401 46,404 3,3 5,-224 5,-504 -1,-508 -1,-510 77,-1944 43,-789 79,-1417 80,-1395 2,22 23,794 48,1715 25,921 48,1717 51,1768 l 6,94 51,-79 50,-78 36,160 36,160 7,-75 c 4,-41 24,-590 43,-1220 20,-630 38,-1160 41,-1177 5,-31 8,-33 44,-33 h 40 v 88 c 0,48 9,569 20,1157 11,589 20,1135 20,1214 0,79 3,141 8,137 4,-4 30,-91 58,-194 37,-133 53,-180 57,-162 4,14 20,129 37,255 37,282 41,307 46,302 2,-2 31,-174 64,-382 33,-208 62,-380 63,-382 2,-1 18,76 37,172 18,96 34,175 36,175 2,0 24,-39 50,-87 26,-49 52,-94 57,-101 8,-10 25,10 69,79 34,52 63,88 68,83 4,-5 30,-46 57,-91 l 49,-82 32,65 32,64 h 5715 5715 v 55 55 H 14491 8732 l -17,65 -18,65 h -41 c -37,0 -48,-6 -91,-50 -27,-27 -54,-50 -61,-50 -6,0 -22,41 -35,90 -19,77 -26,90 -44,90 -16,0 -29,-16 -54,-67 l -34,-68 -8,35 c -4,19 -24,187 -45,373 -37,330 -38,337 -60,337 -19,0 -24,-8 -32,-47 -6,-27 -25,-121 -44,-210 -18,-90 -35,-163 -38,-163 -3,0 -23,152 -44,338 -21,185 -40,347 -43,360 -3,13 -13,22 -24,22 -16,0 -19,-8 -20,-52 -1,-133 -76,-1310 -82,-1288 -3,14 -39,354 -79,757 -40,403 -74,731 -76,729 -1,-2 -19,-221 -38,-487 -19,-266 -37,-485 -40,-488 -3,-3 -30,20 -60,51 l -54,56 -1,-36 c -2,-143 -77,-1330 -82,-1302 -3,19 -24,944 -46,2055 -48,2363 -47,2325 -71,2325 -14,0 -19,-11 -24,-47 z"
       id="path1" />
  </g>
  <text
     xml:space="preserve"
     transform="matrix(0.8955548,0,0,1.0497556,-68.871378,-586.44361)"
     id="text3"
     style="font-size:206.272px;text-align:start;writing-mode:lr-tb;direction:ltr;white-space:pre;shape-inside:url(#rect3);fill:#000000"><tspan
       x="692.71484"
       y="1362.905"
       id="tspan2"><tspan
         style="font-family:'Sans Serif Collection';-inkscape-font-specification:'Sans Serif Collection'"
         id="tspan1">B E A R I N G    P A D S</tspan></tspan></text>
  <text
     xml:space="preserve"
     style="font-style:normal;font-variant:normal;font-weight:normal;font-stretch:normal;font-size:90px;font-family:'Sans Serif Collection';-inkscape-font-specification:'Sans Serif Collection';text-align:start;writing-mode:lr-tb;direction:ltr;text-anchor:start;fill:#000000;stroke-width:0.75"
     x="811.89777"
     y="977.83313"
     id="text4"><tspan
       sodipodi:role="line"
       id="tspan4"
       style="font-style:normal;font-variant:normal;font-weight:normal;font-stretch:normal;font-size:90px;font-family:'Century Gothic';-inkscape-font-specification:'Century Gothic';stroke-width:0.75"
       x="811.89777"
       y="977.83313">I  N  N  O  V  A  T  I  O  N</tspan></text>
  <text
     xml:space="preserve"
     transform="matrix(0.75,0,0,0.75,169.88616,-165.93533)"
     id="text5"
     style="font-style:normal;font-variant:normal;font-weight:normal;font-stretch:normal;font-size:93.3333px;font-family:'Sans Serif Collection';-inkscape-font-specification:'Sans Serif Collection';text-align:start;writing-mode:lr-tb;direction:ltr;white-space:pre;shape-inside:url(#rect5);fill:#000000"><tspan
       x="1174.7168"
       y="1657.1705"
       id="tspan6"><tspan
         style="font-family:'Century Gothic';-inkscape-font-specification:'Century Gothic'"
         id="tspan3">B Y  E V E R E S T</tspan></tspan></text>
</svg>
